<?xml version="1.0" standalone="no"?>
<!DOCTYPE svg PUBLIC "-//W3C//DTD SVG 20010904//EN"
 "http://www.w3.org/TR/2001/REC-SVG-20010904/DTD/svg10.dtd">
<svg version="1.0" xmlns="http://www.w3.org/2000/svg"
 width="512.000000pt" height="512.000000pt" viewBox="0 0 512.000000 512.000000"
 preserveAspectRatio="xMidYMid meet">
<metadata>
Created by potrace 1.14, written by Peter Selinger 2001-2017
</metadata>
<g transform="translate(0.000000,512.000000) scale(0.100000,-0.100000)"
fill="#000000" stroke="none">
<path d="M1019 5116 c-2 -2 -22 -7 -44 -10 -91 -13 -113 -19 -185 -43 -394
-133 -684 -459 -776 -873 -4 -19 -9 -742 -10 -1606 -2 -1682 -4 -1626 47
-1784 24 -74 112 -258 137 -287 9 -10 29 -35 43 -56 31 -44 98 -116 165 -176
150 -133 371 -237 574 -269 63 -10 3135 -9 3190 1 25 4 53 10 62 13 9 3 25 7
35 9 75 16 315 119 333 143 3 4 23 19 45 34 165 108 331 320 412 523 22 56 53
170 62 230 11 73 8 3174 -3 3225 -47 212 -149 408 -291 561 -151 163 -344 276
-580 341 l-80 22 -1566 3 c-861 1 -1568 1 -1570 -1z"/>
</g>
</svg>
